# xmcd CD database file
# 
# Track frame offsets:
# 	150
# 	9419
# 	28951
# 	47079
# 	61976
# 	77579
# 	90920
# 	112932
# 	130541
# 	148528
# 	163462
# 	180721
# 	195572
# 	208819
# 	221634
# 	240972
# 	260390
# 
# Disc length: 3840 seconds
# 
# Submitted via: Nero 5.5.9.0
# 
# Revision: 0
# Processed by: cddbd v1.4PL0 Copyright (c) Steve Scherf et al.
#
DISCID=e30efe11
DTITLE=Gary P. Nunn - Greatest Hits Vol . 2
DYEAR=1900
DGENRE=
TTITLE0=Brother Tumbleweed
TTITLE1=The Money's No Good
TTITLE2=Red Neck Riviera
TTITLE3=Raggae Armadillo
TTITLE4=He Never Came Back From Mexico
TTITLE5=It's A Texas Thing
TTITLE6=Purty Boys
TTITLE7=Dear John Letter Lounge
TTITLE8=Hands On The Wheel
TTITLE9=It's About To Get Western
TTITLE10=San Antone Homesick
TTITLE11=Cow Pasture Pool
TTITLE12=Pickup Truck Texas
TTITLE13=Down In San Antonio
TTITLE14=Uncle Bud
TTITLE15=I Forgot I Don't Live here Anymore
TTITLE16=Folklife
EXTD=
EXTT0=
EXTT1=
EXTT2=
EXTT3=
EXTT4=
EXTT5=
EXTT6=
EXTT7=
EXTT8=
EXTT9=
EXTT10=
EXTT11=
EXTT12=
EXTT13=
EXTT14=
EXTT15=
EXTT16=
PLAYORDER=
